<?xml version="1.0" standalone="no"?>
<!DOCTYPE svg PUBLIC "-//W3C//DTD SVG 20010904//EN"
 "http://www.w3.org/TR/2001/REC-SVG-20010904/DTD/svg10.dtd">
<svg version="1.0" xmlns="http://www.w3.org/2000/svg"
    width="1664.000000pt" height="1408.000000pt" viewBox="0 0 1664.000000 1408.000000"
    preserveAspectRatio="xMidYMid meet">

    <g transform="translate(0.000000,1408.000000) scale(0.100000,-0.100000)"
    fill="#000000" stroke="none">
        <path d="M15605 12794 c-66 -6 -176 -14 -245 -18 -69 -4 -163 -11 -210 -16
        -47 -4 -211 -5 -365 -1 -362 8 -1448 7 -1815 -2 -490 -12 -604 -19 -616 -38
        -3 -5 -20 -16 -38 -23 -19 -8 -46 -31 -62 -51 -16 -21 -49 -61 -74 -89 -94
        -108 -112 -132 -131 -176 -33 -75 -39 -85 -75 -124 -20 -21 -45 -53 -57 -71
        -65 -96 -97 -146 -97 -151 0 -3 -13 -22 -29 -42 -16 -20 -43 -65 -61 -99 -18
        -35 -37 -63 -43 -63 -6 0 -7 -3 -4 -6 4 -4 -11 -22 -33 -42 -22 -19 -40 -41
        -40 -48 0 -8 -4 -14 -8 -14 -5 0 -19 -24 -31 -52 -36 -84 -109 -210 -133 -228
        -3 -3 -17 -35 -31 -71 -29 -78 -64 -148 -84 -169 -34 -37 -52 -63 -63 -93 -6
        -17 -18 -47 -26 -65 -8 -18 -14 -38 -14 -45 0 -14 -62 -104 -84 -121 -18 -14
        -47 -67 -70 -131 -10 -27 -25 -57 -32 -65 -7 -8 -12 -17 -11 -20 1 -3 -4 -12
        -11 -20 -7 -8 -26 -30 -42 -49 -17 -19 -30 -39 -30 -43 0 -25 -72 -158 -104
        -193 -20 -22 -48 -59 -62 -83 -30 -50 -49 -76 -81 -107 -13 -12 -23 -27 -23
        -34 0 -6 -4 -11 -8 -11 -4 0 -14 -21 -21 -47 -7 -27 -19 -61 -26 -78 -8 -16
        -11 -33 -9 -37 3 -4 1 -8 -4 -8 -5 0 -15 -18 -22 -40 -7 -22 -19 -45 -27 -51
        -7 -6 -13 -17 -13 -24 0 -6 -9 -20 -20 -30 -11 -10 -18 -20 -15 -23 2 -3 -5
        -16 -15 -30 -11 -13 -20 -30 -20 -36 0 -18 -52 -138 -74 -171 -11 -16 -35 -46
        -53 -65 -31 -32 -43 -54 -88 -151 -9 -20 -28 -50 -43 -67 -15 -17 -35 -41 -46
        -53 -10 -12 -31 -59 -46 -104 -30 -88 -48 -122 -92 -169 -28 -32 -35 -44 -63
        -116 -35 -89 -44 -106 -84 -150 -22 -25 -59 -83 -82 -130 -23 -47 -56 -98 -73
        -115 -17 -16 -44 -61 -60 -100 -31 -74 -61 -127 -105 -185 -15 -19 -37 -62
        -50 -95 -44 -112 -80 -180 -118 -219 -21 -21 -38 -42 -39 -45 0 -3 -4 -13 -7
        -21 -4 -8 -16 -55 -27 -104 -11 -49 -24 -94 -27 -100 -4 -6 -9 -22 -11 -36 -2
        -13 -7 -27 -11 -30 -13 -8 -81 -111 -81 -122 0 -6 -14 -31 -32 -57 -26 -38
        -33 -58 -36 -112 -3 -47 1 -76 12 -100 9 -19 20 -56 25 -84 14 -73 27 -103 69
        -154 39 -47 62 -91 68 -126 2 -11 8 -51 14 -90 18 -122 36 -156 116 -229 81
        -74 120 -89 150 -59 11 11 40 29 66 41 49 23 76 53 102 117 9 22 37 60 61 85
        41 42 79 116 106 206 5 17 34 59 64 94 30 35 57 73 60 84 4 12 10 30 15 41 5
        11 16 36 24 55 20 45 34 65 72 107 37 40 44 54 74 147 25 79 60 140 90 156 27
        15 67 86 80 143 14 64 41 115 84 155 36 35 69 95 80 149 7 29 79 113 98 113
        12 0 45 80 54 127 17 92 43 127 104 139 24 5 58 54 70 101 10 42 38 77 92 115
        16 11 30 37 42 80 10 34 23 78 29 97 5 19 31 56 57 82 49 49 64 80 75 159 15
        102 36 156 90 226 19 24 49 83 66 130 32 83 50 107 117 160 17 14 32 30 32 35
        0 22 71 157 100 189 33 37 57 84 84 163 19 57 43 95 73 120 23 18 85 140 96
        188 4 14 31 49 60 78 29 29 67 78 83 109 16 31 53 83 82 115 28 32 52 64 52
        70 0 7 9 44 21 82 11 39 26 88 32 110 6 22 32 74 58 115 26 41 57 108 69 147
        12 40 30 84 41 97 10 13 19 26 19 29 0 3 14 19 30 37 37 39 86 111 94 138 4
        11 31 43 60 72 34 34 61 72 76 109 38 90 76 145 135 192 83 67 108 72 360 75
        338 4 387 5 435 16 138 29 265 16 433 -44 52 -19 58 -24 53 -43 -8 -33 15 -48
        43 -29 29 21 34 14 35 -49 1 -53 -34 -147 -54 -147 -6 0 -10 -5 -10 -11 0 -6
        -18 -32 -40 -57 -36 -40 -80 -119 -80 -143 0 -5 -20 -29 -45 -54 -44 -46 -59
        -70 -90 -157 -10 -26 -26 -55 -36 -64 -11 -9 -19 -23 -19 -29 0 -7 -15 -32
        -33 -56 -18 -24 -41 -65 -51 -91 -10 -26 -22 -50 -27 -53 -5 -4 -9 -13 -9 -21
        0 -9 -6 -22 -12 -29 -23 -25 -33 -39 -66 -91 -17 -28 -32 -54 -32 -57 0 -10
        -57 -137 -82 -182 -40 -75 -98 -194 -98 -204 0 -21 -74 -144 -112 -185 -20
        -22 -68 -121 -68 -141 0 -7 -4 -16 -9 -19 -5 -3 -12 -18 -16 -33 -3 -15 -20
        -43 -36 -64 -16 -20 -29 -40 -29 -45 0 -4 -6 -15 -14 -23 -8 -9 -23 -32 -34
        -52 -11 -20 -26 -47 -34 -60 -15 -27 -53 -65 -91 -91 -13 -9 -38 -45 -56 -80
        -36 -73 -49 -91 -76 -106 -12 -6 -26 -21 -32 -34 -6 -13 -30 -63 -54 -113 -23
        -49 -61 -111 -84 -136 -28 -32 -49 -70 -65 -120 -15 -45 -40 -92 -65 -122 -22
        -27 -49 -64 -61 -81 -20 -30 -64 -158 -64 -185 0 -16 -34 -66 -76 -111 -21
        -22 -43 -67 -63 -124 -19 -54 -50 -115 -79 -155 -48 -68 -79 -127 -101 -194
        -7 -20 -17 -37 -22 -37 -5 0 -9 -5 -9 -10 0 -6 -11 -22 -24 -37 -13 -14 -41
        -60 -62 -102 -21 -42 -41 -78 -45 -81 -3 -3 -10 -15 -13 -28 -4 -12 -20 -30
        -34 -40 -36 -23 -58 -51 -95 -124 -18 -34 -48 -78 -67 -98 -33 -34 -57 -74
        -96 -165 -15 -34 -75 -119 -96 -135 -9 -7 -48 -126 -48 -148 0 -35 -41 -141
        -65 -166 -30 -32 -67 -104 -97 -186 -17 -49 -36 -77 -75 -115 -31 -30 -65 -77
        -83 -114 -17 -35 -55 -88 -85 -118 -29 -30 -56 -66 -60 -81 -12 -51 -66 -145
        -105 -183 -24 -24 -44 -55 -51 -82 -31 -115 -61 -176 -110 -217 -24 -21 -52
        -74 -73 -140 -10 -30 -42 -87 -72 -127 -30 -40 -54 -77 -54 -83 0 -5 -5 -10
        -10 -10 -6 0 -10 -6 -9 -12 2 -7 -5 -31 -14 -52 -10 -22 -20 -50 -23 -63 -4
        -13 -14 -29 -23 -36 -38 -28 -84 -101 -111 -178 -32 -88 -49 -118 -87 -159
        -13 -14 -31 -41 -39 -60 -45 -104 -78 -162 -102 -180 -15 -11 -37 -28 -50 -38
        -12 -9 -34 -42 -48 -72 -22 -49 -75 -110 -93 -110 -13 0 -50 -57 -55 -83 -10
        -58 -34 -92 -136 -191 -33 -33 -60 -65 -60 -73 0 -7 -4 -13 -9 -13 -5 0 -11
        -10 -13 -22 -2 -15 -9 -22 -20 -22 -10 1 -16 -2 -13 -6 8 -13 -18 -18 -42 -9
        -13 5 -23 14 -23 20 0 7 -3 9 -6 6 -6 -6 -44 34 -44 47 0 7 -45 70 -101 143
        -45 56 -54 77 -79 188 -20 83 -36 118 -75 160 -38 40 -52 68 -96 184 -15 40
        -41 82 -72 115 -45 49 -58 75 -88 176 -8 27 -30 61 -54 86 -47 48 -85 92 -85
        99 0 18 -84 133 -109 149 -18 12 -42 47 -62 90 -19 39 -43 79 -54 89 -56 49
        -76 74 -103 130 -50 104 -128 185 -195 201 -76 18 -207 -127 -243 -268 -3 -14
        -30 -50 -60 -80 -29 -31 -57 -68 -60 -83 -8 -31 -57 -108 -78 -120 -21 -13
        -85 -102 -107 -150 -11 -24 -43 -67 -70 -94 -51 -51 -71 -90 -84 -169 -4 -24
        -11 -51 -15 -60 -4 -8 -14 -28 -21 -43 -7 -15 -28 -35 -46 -44 -18 -8 -42 -27
        -52 -42 -17 -24 -39 -113 -33 -135 4 -12 -47 -96 -58 -96 -6 0 -10 -6 -10 -12
        0 -7 -15 -20 -33 -28 -23 -11 -42 -33 -68 -85 -24 -45 -48 -77 -70 -91 -42
        -26 -109 -92 -109 -107 0 -6 -6 -3 -13 7 -12 16 -14 16 -26 2 -8 -9 -25 -16
        -40 -16 -14 0 -37 -9 -51 -20 -14 -11 -30 -20 -36 -20 -6 0 -32 22 -58 50 -26
        27 -50 50 -54 50 -12 0 -62 83 -63 105 -3 74 -28 131 -70 161 -21 14 -49 40
        -62 58 -24 32 -67 115 -67 132 0 5 -16 20 -35 34 -57 41 -83 87 -91 160 -4 36
        -8 72 -10 80 -1 8 -3 36 -3 62 -1 45 -3 49 -40 68 -50 25 -101 95 -117 160 -1
        3 -5 20 -9 38 -5 21 -29 55 -64 90 -41 41 -64 75 -81 120 -17 42 -35 71 -55
        85 -16 12 -35 26 -41 32 -17 17 -51 86 -74 150 -17 45 -32 69 -65 95 -57 46
        -76 82 -95 180 -15 77 -34 111 -75 139 -35 24 -75 85 -75 115 0 20 -56 83 -80
        91 -33 10 -60 70 -80 174 -10 56 -21 105 -24 110 -3 4 -25 20 -50 36 -53 33
        -71 73 -80 172 -6 64 -33 136 -51 135 -40 -1 -108 99 -107 157 1 39 -26 116
        -48 136 -10 9 -33 24 -51 33 -26 14 -36 29 -52 77 -27 85 -55 145 -67 145 -5
        0 -10 7 -10 15 0 8 -7 15 -15 15 -18 0 -63 75 -71 121 -9 46 -42 99 -62 99
        -43 0 -78 37 -101 106 -28 84 -61 143 -105 186 -36 36 -43 52 -82 183 -22 74
        -32 95 -61 119 -32 27 -93 133 -93 162 0 22 -25 61 -68 105 -39 41 -76 115
        -89 181 -6 32 -58 86 -89 94 -25 7 -50 63 -59 139 -11 86 -32 126 -72 139 -36
        12 -64 43 -94 107 -28 58 -40 73 -94 118 -21 17 -45 67 -66 141 -21 75 -36 97
        -88 129 -44 27 -52 37 -65 83 -9 29 -18 71 -22 92 -9 63 -22 87 -73 141 -52
        55 -67 90 -76 178 -8 78 -19 99 -73 133 -38 24 -51 42 -83 109 -20 44 -54 97
        -74 118 -38 41 -44 52 -84 167 -23 68 -31 78 -73 105 -56 36 -74 73 -88 183
        -12 90 -25 112 -78 136 -34 15 -45 28 -69 82 -15 35 -31 64 -35 64 -5 0 -8 7
        -8 15 0 8 -4 15 -9 15 -5 0 -25 14 -45 32 -35 31 -68 107 -80 183 -8 54 -22
        77 -61 104 -51 34 -74 75 -86 153 -15 96 -27 124 -73 170 -50 51 -78 101 -102
        186 -14 50 -26 71 -58 98 -22 19 -43 34 -46 34 -4 0 -21 28 -38 63 -16 34 -41
        69 -53 77 -47 30 -85 78 -123 154 -25 51 -60 99 -100 139 -34 34 -75 79 -91
        100 l-30 38 -105 9 c-58 5 -134 8 -170 6 -193 -12 -267 -20 -290 -31 -14 -7
        -36 -11 -49 -9 -13 3 -30 -1 -37 -7 -7 -6 -21 -9 -31 -8 -10 1 -31 -3 -46 -9
        -16 -7 -32 -12 -37 -12 -5 0 -12 -9 -15 -20 -3 -11 -11 -20 -17 -20 -6 0 -8
        -3 -4 -7 3 -4 -14 -19 -39 -35 -37 -23 -45 -33 -45 -57 0 -41 22 -131 32 -131
        4 0 8 -5 8 -11 0 -13 72 -133 83 -137 4 -2 7 -10 7 -18 0 -8 8 -22 18 -32 15
        -15 72 -130 72 -146 0 -4 24 -39 53 -79 52 -70 88 -136 102 -187 10 -34 44
        -98 76 -140 33 -44 62 -104 80 -166 10 -36 30 -65 76 -112 39 -40 64 -75 68
        -95 25 -121 48 -176 96 -227 55 -59 54 -57 73 -166 16 -93 34 -126 86 -159 37
        -23 84 -101 110 -180 7 -22 32 -58 55 -80 40 -38 54 -62 85 -143 8 -19 29 -44
        49 -57 59 -38 85 -75 116 -170 26 -78 37 -97 82 -143 29 -29 53 -57 53 -63 0
        -6 9 -42 21 -80 17 -55 32 -82 78 -133 48 -52 61 -75 76 -130 17 -64 37 -95
        80 -126 32 -23 65 -88 77 -149 13 -73 42 -127 76 -145 29 -15 63 -61 96 -131
        40 -86 61 -122 97 -165 23 -28 44 -69 55 -110 14 -46 30 -76 58 -105 52 -54
        105 -132 112 -164 12 -54 30 -82 71 -112 49 -35 57 -47 84 -132 20 -63 80
        -161 104 -171 18 -6 74 -136 59 -136 -12 0 44 -91 87 -143 27 -32 49 -63 49
        -67 0 -5 5 -21 12 -37 6 -15 13 -39 15 -52 6 -35 28 -74 58 -102 44 -41 95
        -128 105 -180 12 -63 15 -69 70 -117 50 -44 55 -52 100 -167 19 -51 44 -95 69
        -120 43 -46 61 -76 61 -102 0 -32 50 -121 86 -155 19 -18 34 -38 34 -45 0 -7
        4 -13 9 -13 4 0 19 -36 31 -81 19 -65 29 -85 55 -105 18 -13 36 -24 41 -24 12
        0 61 -95 69 -135 22 -107 59 -175 95 -175 14 0 47 -69 75 -159 19 -59 36 -92
        68 -128 24 -26 53 -69 65 -96 12 -26 31 -67 42 -91 11 -24 36 -60 55 -79 19
        -20 35 -39 35 -42 0 -4 8 -19 18 -33 10 -15 25 -48 32 -74 10 -38 24 -58 70
        -98 49 -43 63 -63 94 -139 21 -48 52 -103 70 -122 43 -46 62 -77 77 -130 17
        -59 42 -102 86 -149 53 -59 60 -70 78 -141 19 -76 29 -92 92 -156 39 -39 54
        -64 76 -129 15 -45 27 -86 27 -91 0 -6 18 -30 40 -54 22 -24 43 -53 46 -64 4
        -11 10 -22 13 -25 8 -5 43 -94 60 -151 6 -19 31 -57 55 -84 25 -27 52 -67 62
        -89 42 -101 66 -144 103 -184 27 -29 46 -64 58 -103 15 -52 50 -104 86 -126
        26 -17 65 -81 92 -152 18 -45 46 -92 72 -121 39 -43 83 -125 83 -153 0 -22 57
        -132 84 -162 27 -29 76 -123 76 -144 0 -25 51 -101 98 -148 29 -29 63 -76 78
        -109 15 -33 42 -82 60 -111 47 -74 79 -140 94 -198 10 -37 27 -63 64 -101 76
        -75 99 -88 136 -75 40 13 157 116 166 144 9 29 87 150 131 205 22 27 44 72 59
        122 19 62 37 95 84 155 33 41 70 101 83 132 14 37 42 77 77 114 43 45 59 71
        74 121 27 88 42 115 95 172 32 34 56 75 75 123 20 53 42 88 81 128 30 32 68
        88 89 130 34 70 74 115 102 115 7 0 28 28 46 63 31 58 35 62 66 60 55 -2 78
        -11 123 -49 23 -19 55 -38 71 -41 39 -8 85 -56 97 -101 16 -59 60 -118 105
        -141 23 -11 38 -21 33 -21 -4 0 -1 -10 7 -23 9 -12 25 -53 36 -91 18 -58 30
        -77 86 -131 35 -35 64 -71 64 -79 0 -39 44 -127 89 -177 52 -59 91 -120 91
        -144 0 -8 12 -26 28 -39 15 -13 41 -37 59 -53 17 -15 43 -51 58 -80 15 -28 47
        -70 71 -93 51 -47 94 -132 117 -232 9 -37 25 -87 36 -112 12 -25 21 -48 21
        -51 0 -3 22 -29 50 -57 28 -28 50 -54 50 -58 0 -15 30 -19 58 -9 71 27 138 87
        174 157 12 24 45 69 74 100 50 56 104 147 104 177 0 8 5 15 10 15 6 0 10 7 10
        15 0 9 26 44 59 79 40 43 65 81 80 122 13 32 39 82 60 109 46 61 63 93 92 170
        20 54 44 96 116 200 12 18 32 66 44 106 24 81 36 102 90 169 21 25 60 83 87
        130 27 47 64 101 82 120 18 19 48 67 66 105 17 39 52 99 77 133 25 35 64 110
        86 166 27 66 55 116 80 143 21 23 54 77 75 119 20 42 56 102 80 133 30 39 54
        87 76 151 38 115 48 137 78 169 24 26 112 197 112 217 0 5 21 37 48 70 61 76
        76 101 91 146 7 20 39 69 72 108 33 39 77 106 98 149 22 42 47 83 56 91 22 18
        75 96 75 109 0 10 23 67 53 129 6 12 31 44 57 70 27 28 53 68 64 97 9 28 22
        62 27 76 6 15 32 57 60 95 33 46 59 98 80 161 19 58 44 110 68 140 37 48 101
        148 101 159 0 13 35 80 49 95 45 47 91 126 91 157 0 27 52 117 90 157 22 23
        56 79 81 132 24 53 59 111 82 135 22 24 51 68 64 98 42 95 47 102 96 149 26
        25 58 65 70 89 12 24 32 55 44 68 13 14 23 28 23 32 0 4 9 16 21 25 29 26 66
        110 83 195 21 97 37 133 86 190 25 29 50 72 61 108 29 88 59 143 102 187 21
        22 54 70 73 107 19 37 54 88 77 113 23 25 52 72 65 104 36 90 65 143 87 162
        27 22 59 68 75 111 29 77 46 108 91 165 25 33 61 95 79 138 18 43 48 95 67
        115 43 45 54 66 87 164 18 53 42 99 79 147 31 40 61 92 71 123 30 95 57 151
        92 187 36 39 48 60 90 165 17 42 47 91 77 125 27 31 62 84 78 119 15 34 45 79
        65 100 21 21 57 81 85 140 27 57 68 129 92 160 24 31 54 86 67 122 29 84 50
        128 76 156 23 26 61 103 95 192 14 38 43 84 70 115 51 58 69 88 100 174 12 32
        34 75 50 95 16 20 29 42 29 47 0 6 4 11 9 11 10 0 40 67 66 148 11 35 31 67
        59 95 24 23 60 75 81 116 23 43 61 94 91 124 34 33 64 74 84 118 21 46 44 79
        71 100 22 17 60 61 84 98 24 36 61 82 82 101 21 20 49 58 62 85 22 44 23 52
        12 94 -21 78 -30 83 -146 79 -55 -2 -154 -8 -220 -14z"/>
        <path d="M10695 12500 c-9 -16 -13 -30 -11 -30 3 0 12 14 21 30 9 17 13 30 11
        30 -3 0 -12 -13 -21 -30z"/>
        <path d="M5112 11630 l22 -31 18 23 c25 33 23 38 -22 38 l-41 0 23 -30z"/>
        <path d="M8798 11615 c16 -35 16 -35 29 -13 19 36 16 48 -16 48 l-29 0 16 -35z"/>
        <path d="M10196 11581 c-20 -39 -33 -71 -27 -71 15 0 48 47 61 86 22 64 4 57
        -34 -15z"/>
        <path d="M3840 11425 c0 -5 10 -21 21 -35 13 -17 17 -18 10 -5 -17 33 -31 51
        -31 40z"/>
        <path d="M5380 11173 c1 -4 12 -28 25 -53 27 -50 34 -37 9 16 -16 33 -34 54
        -34 37z"/>
        <path d="M9897 11113 c-4 -3 -7 -13 -7 -22 1 -13 3 -13 11 2 11 19 8 33 -4 20z"/>
        <path d="M5565 10812 c15 -28 30 -50 32 -48 7 7 -27 74 -45 88 -9 8 -4 -9 13
        -40z"/>
        <path d="M5721 10545 c0 -5 6 -19 14 -29 8 -11 15 -15 15 -10 0 6 -7 19 -15
        30 -8 10 -14 15 -14 9z"/>
        <path d="M9423 10312 c-11 -20 -24 -48 -28 -62 l-7 -25 19 25 c19 24 46 90 40
        97 -2 1 -13 -14 -24 -35z"/>
        <path d="M4490 10291 c0 -6 4 -13 10 -16 6 -3 7 1 4 9 -7 18 -14 21 -14 7z"/>
        <path d="M3337 10199 c15 -28 29 -46 31 -40 4 13 -39 91 -50 91 -5 0 3 -23 19
        -51z"/>
        <path d="M6040 10059 c0 -8 7 -23 15 -33 11 -14 15 -16 15 -5 0 8 -7 23 -15
        33 -11 14 -15 16 -15 5z"/>
        <path d="M9251 9961 c-24 -46 -26 -55 -10 -45 13 8 42 74 35 81 -2 3 -14 -13
        -25 -36z"/>
        <path d="M9090 9650 c-6 -12 -9 -24 -7 -27 3 -2 11 5 17 17 6 12 9 24 7 27 -3
        2 -11 -5 -17 -17z"/>
        <path d="M3963 9105 c19 -37 46 -73 47 -62 0 14 -28 63 -46 78 -16 13 -16 12
        -1 -16z"/>
        <path d="M6679 8913 c24 -49 40 -62 34 -28 -3 13 -16 34 -30 47 l-25 23 21
        -42z"/>
        <path d="M7498 6945 c-3 -11 -9 -29 -13 -40 -3 -11 1 -7 10 8 9 16 15 33 12
        40 -2 6 -6 3 -9 -8z"/>
    </g>
</svg>
